PathFileType	4	(X/Y/Z)	../Python\running\Running08\task.trc
DataRate	CameraRate	NumFrames	NumMarkers	Units	OrigDataRate	OrigDataStartFrame	OrigNumFrames
200.000000	200.000000	5	30	mm	200.000000	127	204
Frame#	Time	C7			RBAK			CLAV			STRN			RASI			RPSI			LASI			PE01			RTH2			RTH3			RTB2			RD5M			RTOE			LTH3			LTB2			LTB3			LHEE			LTOE			LD5M			RTH1			RHEE			LPSI			PE02			RTB3			RTB1			PE03			T10			LTH2			LTH1			LTB1			
		X1	Y1	Z1	X2	Y2	Z2	X3	Y3	Z3	X4	Y4	Z4	X5	Y5	Z5	X6	Y6	Z6	X7	Y7	Z7	X8	Y8	Z8	X9	Y9	Z9	X10	Y10	Z10	X11	Y11	Z11	X12	Y12	Z12	X13	Y13	Z13	X14	Y14	Z14	X15	Y15	Z15	X16	Y16	Z16	X17	Y17	Z17	X18	Y18	Z18	X19	Y19	Z19	X20	Y20	Z20	X21	Y21	Z21	X22	Y22	Z22	X23	Y23	Z23	X24	Y24	Z24	X25	Y25	Z25	X26	Y26	Z26	X27	Y27	Z27	X28	Y28	Z28	X29	Y29	Z29	X30	Y30	Z30	

128	0.635	309.5804443359376	1297.056518554688	176.6535339355469	237.5053558349611	1195.827758789063	270.2599487304689	428.7844848632815	1189.662963867188	196.5745086669923	463.9834289550784	996.865600585938	193.9489288330079	371.9815063476564	821.994506835938	306.0642089843751	193.7571258544923	887.094116210938	204.8006744384767	401.9349060058596	788.9670410156255	83.53904724121097	213.8292236328126	913.0248413085942	158.108627319336	365.180145263672	467.5566101074221	325.168670654297	380.2094116210939	526.4508056640627	337.3657836914064	275.8019104003907	225.0887298583986	299.1446838378907	276.0383300781251	16.82315635681153	266.529998779297	316.5159912109376	29.82418823242189	210.1138610839845	435.8486938476565	524.8945922851565	37.73539352416994	218.0638427734376	286.3778381347657	76.74281311035159	264.085662841797	268.5196533203126	77.39153289794925	48.24347305297854	205.6644287109376	146.4586944580079	175.9159240722657	85.58974456787112	111.4579238891602	142.8496856689454	107.7431411743165	66.02043914794925	330.9221496582032	537.9307861328127	339.6956481933595	126.4120483398438	39.18233108520509	199.1435394287111	207.2331848144532	872.4469604492192	118.941635131836	178.0381317138672	862.469848632813	184.1772613525391	288.5904846191407	180.7236785888672	277.8377380371095	332.9822692871095	245.3459777832032	292.762664794922	188.5012359619141	854.388549804688	135.3069152832032	242.6358032226564	1009.433166503907	153.5494995117188	372.6675415039064	478.2867126464846	52.31558990478518	386.8515930175784	535.5917968750002	33.68307876586915	285.4519653320314	325.8482971191407	64.1333923339844	
129	0.64	324.5897827148439	1297.26806640625	176.6864929199219	254.5363922119142	1196.40771484375	272.5022888183595	444.1690979003909	1189.825927734375	194.5779418945314	478.8123779296877	996.758666992188	191.9081115722657	386.565856933594	821.175903320313	306.365936279297	208.4955139160157	887.4536132812505	205.5117340087892	416.4883422851565	789.2587280273442	83.6047058105469	228.7144622802736	913.5538940429692	159.044418334961	372.5137329101564	466.0097961425784	325.1602172851564	389.4608154296877	524.3081665039065	337.1339111328126	278.0310058593751	224.6898193359376	298.8002014160157	275.5803527832032	16.75914573669434	266.3504943847657	316.2879943847657	29.7063617706299	210.1399230957032	457.4771728515627	528.5640869140627	37.58350372314455	246.5125274658204	282.9558105468751	75.11861419677737	293.0294799804689	266.6567382812501	76.22718811035159	78.7690124511719	196.3031616210939	143.1813507080079	211.3869171142579	81.29327392578128	109.0018157958985	177.6698913574219	102.1210174560547	63.52311325073245	340.511199951172	537.3542480468752	339.8267822265626	126.3051300048829	41.00131988525392	198.9518432617189	221.812225341797	873.172973632813	119.7964172363282	192.6634368896486	863.079467773438	184.8895263671876	290.2206115722657	179.9906311035157	277.7928161621095	335.5616455078126	243.8398895263673	292.9682617187501	203.0874786376954	855.171264648438	135.9878082275391	257.6233215332032	1009.620239257813	154.9693450927735	395.6003112792971	480.279968261719	52.08154296875003	408.2159118652346	537.8591918945315	33.38830566406251	312.5500793457032	324.6196289062501	63.24516677856448	
130	0.645	339.5640869140626	1297.839233398438	176.630599975586	271.6740722656251	1197.39697265625	274.6573486328126	459.5354309082034	1190.493041992188	192.4786376953126	493.6587829589846	997.1696777343755	189.7731018066407	401.3307189941409	820.6516113281255	306.6248779296876	223.3631896972657	888.0033569335942	206.4436187744142	431.1545410156252	790.045288085938	83.55848693847659	243.6752471923829	914.3368530273442	160.2021942138672	379.1130676269532	464.6744384765627	324.9351806640626	398.1310119628909	522.262878417969	336.7281188964845	280.1398315429689	224.6160430908204	298.3464355468751	275.0984497070314	16.73834419250489	266.1240234375001	316.0680236816407	29.59793090820314	210.1531829833986	478.7767028808596	532.7823486328127	37.39645004272462	274.9122314453126	279.8059997558595	73.67377471923831	321.9232482910157	265.2012023925782	75.12961578369143	109.7527770996094	186.9305725097657	140.1256408691407	247.1998291015626	77.37502288818362	106.5989608764649	212.8279113769532	96.81867980957037	61.14387512207034	349.6639099121095	537.0479736328127	339.756805419922	126.225196838379	43.12207031250001	198.7259216308595	236.4468383789064	874.198852539063	120.846908569336	207.4331054687501	863.902954101563	185.8026275634766	291.7671813964845	179.6196441650391	277.592254638672	337.9963989257814	242.732147216797	292.9588928222657	217.7628021240236	856.228149414063	136.8493347167969	272.6935424804689	1010.162048339844	156.4757537841797	418.2908630371096	482.8844299316409	51.94704818725589	429.3047790527346	540.6557617187502	33.13717651367189	339.4297180175782	323.7802734375001	62.48158264160159	
131	0.65	354.5097961425782	1298.759765625	176.4834289550782	288.903778076172	1198.780151367188	276.7082519531251	474.8912658691409	1191.639282226563	190.2840118408204	508.5424499511721	998.0737304687505	187.5682525634766	416.2943115234377	820.4291381835942	306.8422851562501	238.3744201660157	888.7546386718755	207.5864410400392	445.9459228515627	791.308715820313	83.40882110595706	258.7278747558595	915.3720092773442	161.5706787109376	385.0603332519534	463.6305236816409	324.4844055175782	406.228210449219	520.4138183593752	336.1429138183595	282.2002258300782	224.9169158935548	297.7864685058595	274.6136779785157	16.76766014099122	265.8518066406251	315.8631286621095	29.50234985351564	210.1541748046876	499.6813049316409	537.4922485351565	37.1554527282715	303.2509155273439	276.9143676757814	72.39695739746097	350.7444763183595	264.1274719238282	74.09458923339847	141.1885681152344	177.5972747802735	137.2845458984376	283.3124084472657	73.85169219970706	104.2922973632813	248.3032531738282	91.85089111328128	58.90580368041995	358.3885803222657	537.0396118164065	339.4750976562501	126.205665588379	45.59252548217775	198.4987640380861	251.1548461914064	875.5116577148442	122.0794143676758	222.3593292236329	864.9353027343755	186.8981323242188	293.2971191406251	179.6617126464844	277.2369384765626	340.3626098632814	242.0742797851564	292.724578857422	232.5459899902345	857.5559692382817	137.8754577636719	287.8562011718751	1011.045593261719	158.0741271972657	440.6827087402346	486.0433349609377	51.95894622802737	450.047546386719	543.9273681640627	32.95388412475587	366.0818786621095	323.2908325195314	61.82680892944339	
132	0.655	369.4340209960939	1300.016723632813	176.2438964843751	306.2096252441407	1200.54052734375	278.6392211914064	490.2427062988284	1193.2353515625	188.0018615722657	523.4812622070315	999.4414062500005	185.3181610107422	431.4710693359377	820.5136108398442	307.0213317871095	253.5420532226564	889.7182006835942	208.9233551025392	460.874450683594	793.0266113281255	83.17021179199222	273.8898315429689	916.657348632813	163.1340484619141	390.4961242675784	462.9631347656252	323.8086547851564	413.8221740722659	518.8694458007815	335.3773498535157	284.2789611816407	225.6387329101564	297.1289672851564	274.1498107910157	16.85128974914551	265.538787841797	315.6771240234376	29.41986465454103	210.1444091796876	520.1375732421877	542.6202392578127	36.84880447387697	331.5252990722657	274.2623291015626	71.27312469482425	379.477508544922	263.4034118652345	73.12026977539065	173.0697021484376	168.3549499511719	134.6444396972657	319.6807861328126	70.72701263427737	102.1292724609376	284.0747680664064	87.21917724609378	56.83472824096683	366.7404174804689	537.3632812500002	338.985321044922	126.287712097168	48.45868301391604	198.3060760498048	265.9547729492189	877.098754882813	123.476188659668	237.4515838623048	866.1726684570317	188.1521453857422	294.873260498047	180.1627655029297	276.7380981445314	342.7296142578126	241.9111785888673	292.2721252441407	247.4556579589845	859.1516113281255	139.0457305908204	303.1196289062501	1012.256103515625	159.7689056396485	462.7235107421877	489.6908874511721	52.1565971374512	470.387634277344	547.6131591796877	32.8605422973633	392.5075683593752	323.1050109863282	61.2642517089844	
